<?xml version="1.0" encoding="UTF-8"?>
<svg id="Layer_1" data-name="Layer 1" xmlns="http://www.w3.org/2000/svg" viewBox="0 0 806.43 191.97">
  <defs>
    <style>
      .cls-1 {
        fill: #f37576;
      }

      .cls-1, .cls-2, .cls-3, .cls-4 {
        stroke-width: 0px;
      }

      .cls-2 {
        fill: #ffcd4b;
      }

      .cls-3 {
        fill: #2c318e;
      }

      .cls-4 {
        fill: #ef4f90;
      }
    </style>
  </defs>
  <g>
    <path class="cls-3" d="M229.8,101.18v34.02h-21.21V41.58h29.09c7.25,0,12.76,1.14,16.54,3.43,3.77,2.29,6.77,5.79,8.98,10.49,2.21,4.71,3.32,9.99,3.32,15.84,0,8.92-2.26,16.12-6.79,21.61-4.52,5.49-10.56,8.23-18.11,8.23h-11.83ZM229.5,81.09h6.99c6.15,0,9.23-3.11,9.23-9.33,0-5.85-2.84-8.78-8.53-8.78h-7.68v18.11Z"/>
    <path class="cls-3" d="M292.67,135.2h-19.06v-69.76h16.57v14.4c1.9-10.47,6.3-15.71,13.22-15.71.7,0,1.66.09,2.89.27v24.35c-1.4-.46-2.64-.69-3.74-.69-6.59,0-9.88,5.05-9.88,15.16v31.96Z"/>
    <path class="cls-3" d="M337.38,136.64c-8.42,0-15.1-3.6-20.06-10.8-4.96-7.2-7.43-15.65-7.43-25.34,0-10.43,2.59-19.11,7.76-26.06,5.17-6.95,11.9-10.43,20.18-10.43s15.06,3.43,20.13,10.29c5.07,6.86,7.61,15.46,7.61,25.79s-2.57,19.13-7.71,26.1c-5.14,6.97-11.97,10.46-20.48,10.46ZM337.68,120.04c3.09,0,4.98-2.21,5.66-6.62.68-4.41,1.02-9.02,1.02-13.82,0-6.54-.48-11.25-1.45-14.13-.97-2.88-2.69-4.32-5.19-4.32-2.3,0-3.98,1.49-5.04,4.46-1.06,2.97-1.6,7.87-1.6,14.68,0,8,.55,13.3,1.65,15.88,1.1,2.58,2.74,3.88,4.94,3.88Z"/>
    <path class="cls-3" d="M393.26,65.45v65.64c0,6.63-.42,11.77-1.27,15.43-.85,3.66-2.74,6.74-5.67,9.26-2.93,2.51-7.08,3.77-12.44,3.77-3.5,0-6.88-.43-10.15-1.3v-19.96c1.46.87,2.93,1.3,4.39,1.3,3.49,0,5.24-2.84,5.24-8.5v-65.64h19.91ZM393.26,38.77v21.54h-19.91v-21.54h19.91Z"/>
    <path class="cls-3" d="M437.22,110.17l18.56,1.71c-1.1,6.86-3.9,12.7-8.41,17.53s-10.6,7.24-18.29,7.24c-8.55,0-15.37-3.4-20.46-10.19-5.09-6.79-7.63-15.22-7.63-25.28s2.51-19.23,7.53-26.41c5.02-7.18,11.73-10.77,20.11-10.77s14.68,3.38,19.68,10.15c5.01,6.77,7.51,15.98,7.51,27.64,0,.96-.02,2.29-.05,3.98h-33.98c.07,4.39.63,7.65,1.7,9.77,1.06,2.13,3.09,3.19,6.09,3.19,4.32,0,6.87-2.86,7.63-8.57ZM435.87,92.06c-.03-4.71-.72-7.88-2.06-9.5-1.34-1.62-3.01-2.43-5-2.43-4.71,0-7.06,3.98-7.06,11.93h14.12Z"/>
    <path class="cls-3" d="M494.2,107.08l16.96,1.99c-.8,8.14-3.28,14.77-7.46,19.89-4.17,5.12-9.72,7.68-16.64,7.68-7.75,0-14.05-3.35-18.89-10.05-4.84-6.7-7.26-15.28-7.26-25.76s2.4-19.51,7.21-26.44c4.81-6.93,11.05-10.39,18.74-10.39,6.82,0,12.37,2.62,16.66,7.85,4.29,5.24,6.75,11.86,7.39,19.86l-17.41,1.99c-.73-7.36-2.76-11.04-6.09-11.04-2.13,0-3.68,1.34-4.67,4.01-.98,2.67-1.47,7.33-1.47,13.96,0,5.72.49,9.95,1.47,12.69.98,2.74,2.69,4.12,5.11,4.12,3.56,0,5.67-3.45,6.34-10.36Z"/>
    <path class="cls-3" d="M548.39,65.45v17.77h-10.13v25.72c0,3.52.48,5.61,1.45,6.28.96.66,1.96.99,2.99.99,1.6,0,3.49-.39,5.69-1.17v19.48c-3.93,1.05-7.78,1.58-11.58,1.58-6.12,0-10.62-1.81-13.5-5.42-2.88-3.61-4.32-9.37-4.32-17.29l.05-8.16v-22.02h-7.58v-17.77h7.58l.3-22.7,18.91-.41v23.11h10.13Z"/>
    <path class="cls-4" d="M557.88,140.04V46.41h26.34c11.44,0,20.01,4.66,25.7,13.99,5.69,9.33,8.53,20.12,8.53,32.38,0,13.99-3.05,25.37-9.16,34.12-6.1,8.76-14.03,13.14-23.78,13.14h-27.64ZM578.78,118.5h5.44c3.46,0,6.38-2.31,8.76-6.93,2.38-4.62,3.57-10.91,3.57-18.86,0-6.81-1.06-12.69-3.17-17.63-2.11-4.94-5.16-7.41-9.16-7.41h-5.44v50.83Z"/>
    <path class="cls-4" d="M660.11,115l18.56,1.71c-1.1,6.86-3.9,12.7-8.41,17.53-4.51,4.82-10.6,7.24-18.29,7.24-8.55,0-15.37-3.4-20.46-10.19-5.09-6.79-7.63-15.22-7.63-25.28s2.51-19.23,7.53-26.41c5.02-7.18,11.73-10.77,20.11-10.77s14.68,3.38,19.68,10.15c5.01,6.77,7.51,15.98,7.51,27.64,0,.96-.02,2.29-.05,3.98h-33.98c.07,4.39.63,7.65,1.7,9.77s3.09,3.19,6.09,3.19c4.32,0,6.87-2.86,7.63-8.57ZM658.77,96.89c-.03-4.71-.72-7.88-2.06-9.5-1.34-1.62-3.01-2.43-5-2.43-4.71,0-7.06,3.98-7.06,11.93h14.12Z"/>
    <path class="cls-4" d="M706.12,46.41v93.63h-19.61V46.41h19.61Z"/>
    <path class="cls-4" d="M747.93,70.28v17.77h-10.13v25.72c0,3.52.48,5.61,1.45,6.28.96.66,1.96.99,2.99.99,1.6,0,3.49-.39,5.69-1.17v19.48c-3.93,1.05-7.78,1.58-11.58,1.58-6.12,0-10.62-1.81-13.5-5.42-2.88-3.61-4.32-9.37-4.32-17.29l.05-8.16v-22.02h-7.58v-17.77h7.58l.3-22.7,18.91-.41v23.11h10.13Z"/>
    <path class="cls-4" d="M806.43,140.04h-18.96c-.47-2.97-.7-6.22-.7-9.74-3.59,7.45-9.03,11.18-16.32,11.18-5.99,0-10.47-2.1-13.45-6.31-2.98-4.21-4.47-9.03-4.47-14.47,0-7.36,2.44-13.32,7.31-17.87,4.87-4.55,13.51-7.28,25.92-8.2v-1.58c0-3.06-.51-5.1-1.52-6.1-1.01-1-2.5-1.51-4.47-1.51-4.59,0-7.15,2.54-7.68,7.61l-18.16-2.33c2.59-14.59,11.43-21.88,26.49-21.88,4.09,0,7.85.56,11.28,1.68,3.43,1.12,6.14,2.87,8.13,5.25,2,2.38,3.33,4.89,4.02,7.54.68,2.65,1.02,7.75,1.02,15.3v27.85c0,5.3.52,9.83,1.55,13.58ZM785.78,107.39c-8.48,1.23-12.72,4.96-12.72,11.18,0,4.21,1.68,6.31,5.04,6.31,2.13,0,3.94-.87,5.44-2.61,1.5-1.74,2.25-5.58,2.25-11.52v-3.36Z"/>
  </g>
  <path class="cls-3" d="M0,75.35l92.49,116.62,92.62-111.55-33.5-26.43H34.61"/>
  <path class="cls-4" d="M0,57.35l92.49,116.62,92.62-111.55-33.5-26.43H34.61"/>
  <path class="cls-1" d="M0,39.35l92.49,116.62,92.62-111.55-33.5-26.43H34.61"/>
  <path class="cls-2" d="M0,21.35l92.49,116.62L185.11,26.43,151.61,0H34.61"/>
</svg>